# xmcd
#
# Track frame offsets: 
#        150
#        15984
#        38098
#        56084
#        71570
#        92785
#        112070
#        139507
#        160544
#        180741
#        201963
#
# Disc length: 2904 seconds
#
# Revision: 0
# Processed by: cddbd v1.5.2PL0 Copyright (c) Steve Scherf et al.
# Submitted via: ExactAudioCopy v1.0b4
#
DISCID=8f0b560b
DTITLE=Mr. Sipp - It's My Guitar
DYEAR=2013
DGENRE=Blues
TTITLE0=Can I Ride
TTITLE1=If Loving You Is Crazy
TTITLE2=It's My Guitar
TTITLE3=Hey Hey Hey Hey
TTITLE4=Miss Jones
TTITLE5=The Woman I Love
TTITLE6=If You Got A Good Woman
TTITLE7=Why You Do Me This Way
TTITLE8=They Got Me Messed Up
TTITLE9=My Blues Jig
TTITLE10=Yes Man
EXTD=
EXTT0=
EXTT1=
EXTT2=
EXTT3=
EXTT4=
EXTT5=
EXTT6=
EXTT7=
EXTT8=
EXTT9=
EXTT10=
PLAYORDER=
